<svg width="496" height="500" viewBox="0 0 496 500" fill="none" xmlns="http://www.w3.org/2000/svg">
<g clip-path="url(#clip0)">
<path d="M495.528 214.817H495.513C495.498 214.7 495.484 214.569 495.469 214.452C495.496 214.572 495.515 214.694 495.528 214.817V214.817Z" fill="#FC5656"/>
<path d="M495.469 214.452C495.484 214.569 495.498 214.7 495.513 214.817H495.528C495.515 214.694 495.496 214.572 495.469 214.452V214.452Z" fill="#FC5656"/>
<path d="M7.06049 179.634C7.05948 179.645 7.05442 179.655 7.04626 179.663V179.634H7.06049Z" fill="#FC5656"/>
<path d="M247.423 107.095C-20.7154 209.276 51.0068 98.1424 64.3629 79.5082C64.3629 79.4936 64.3921 79.4792 64.3921 79.4792C87.8058 54.3631 116.145 34.3428 147.642 20.668C179.138 6.99318 213.115 -0.0425368 247.452 8.70334e-06V107.095" fill="#032562"/>
<path d="M495.469 214.452C495.484 214.569 495.498 214.7 495.513 214.817H495.528C495.515 214.694 495.496 214.572 495.469 214.452V214.452ZM7.04626 179.634V179.663C7.05442 179.655 7.05948 179.645 7.06049 179.634H7.04626Z" fill="#FC5656"/>
<path d="M494.478 208.124C488.179 177.242 462.575 165.097 430.061 163.114H430.046C416.949 162.46 403.821 163.007 390.824 164.747C322.965 173.174 247.292 206.2 247.292 206.2C185.251 230.403 138.797 242.928 104.095 247.682C93.8324 249.162 83.4801 249.936 73.1113 250C54.4768 250 40.7277 246.982 30.6373 242.199C-3.24777 226.131 4.15932 190.146 6.50661 181.515C6.72518 180.713 6.90032 180.144 6.98789 179.852C7.01072 179.79 7.0302 179.727 7.04627 179.663C7.05443 179.655 7.05949 179.645 7.0605 179.634H7.04625C18.093 142.25 37.7201 107.964 64.3629 79.5082C51.0068 98.1423 -20.7154 209.276 247.423 107.095C247.423 107.095 401.074 43.3629 438.24 88.1254L438.269 88.14C467.468 122.344 486.888 163.798 494.478 208.124Z" fill="#6559D3"/>
<path d="M487.858 320.366C487.859 320.355 487.864 320.345 487.872 320.337V320.366H487.858Z" fill="#FC5656"/>
<path d="M247.466 500C281.803 500.043 315.78 493.007 347.277 479.332C378.773 465.657 407.113 445.637 430.526 420.521C430.526 420.521 430.555 420.506 430.555 420.492C443.912 401.858 515.634 290.724 247.495 392.905L247.466 500Z" fill="#032562"/>
<path d="M487.858 320.366H487.873V320.337C487.864 320.345 487.859 320.355 487.858 320.366Z" fill="#FC5656"/>
<path d="M488.412 318.485C488.194 319.287 488.019 319.856 487.931 320.148C487.908 320.21 487.889 320.273 487.873 320.337C487.864 320.345 487.859 320.355 487.858 320.366H487.873C476.826 357.75 457.199 392.036 430.556 420.492C443.912 401.857 515.634 290.724 247.496 392.905C247.496 392.905 93.8446 456.637 56.6789 411.875L56.6497 411.86C27.4509 377.656 8.03098 336.202 0.440826 291.876C6.74013 322.757 32.3581 334.903 64.8734 336.886C77.9698 337.539 91.0985 336.993 104.095 335.253C171.954 326.825 247.627 293.8 247.627 293.8C309.668 269.596 356.122 257.057 390.824 252.304C401.088 250.835 411.44 250.066 421.808 250C440.442 250 454.191 253.018 464.281 257.801C498.167 273.868 490.76 309.854 488.412 318.485Z" fill="#6559D3"/>
<path d="M464.281 257.801C454.191 253.018 440.442 250 421.808 250C411.44 250.066 401.088 250.835 390.824 252.304C356.122 257.057 309.668 269.596 247.627 293.8C247.627 293.8 171.954 326.825 104.095 335.253C91.0984 336.993 77.9697 337.539 64.8734 336.886C32.3581 334.903 6.74008 322.757 0.440779 291.876C0.440779 291.876 -6.03295 264.551 30.6373 242.199C40.7277 246.982 54.4768 250 73.1113 250C83.4801 249.936 93.8324 249.162 104.095 247.682C138.797 242.928 185.251 230.404 247.292 206.2C247.292 206.2 322.965 173.174 390.824 164.747C403.821 163.007 416.949 162.46 430.046 163.114H430.061C462.575 165.097 488.179 177.242 494.478 208.124C494.478 208.124 500.952 235.449 464.281 257.801Z" fill="#032562"/>
</g>
<defs>
<clipPath id="clip0">
<rect width="495.528" height="500" fill="white"/>
</clipPath>
</defs>
</svg>
