<svg id="Layer_1" data-name="Layer 1" xmlns="http://www.w3.org/2000/svg" viewBox="0 0 520 134"><defs><style>.cls-1{fill:#f8f9fa;}.cls-2{fill:none;}.cls-3{fill:#fc5656;}.cls-4{fill:#004e9b;}.cls-5{fill:#6559d3;}</style></defs><path class="cls-1" d="M172,71.88A7.2,7.2,0,0,0,175.05,78c2.1,1.45,5,2.25,8.88,2.25a25.17,25.17,0,0,0,5.32-.48,15.1,15.1,0,0,0,3.55-1.29,4.72,4.72,0,0,0,1.94-2.09,5.3,5.3,0,0,0,.64-2.73,5.75,5.75,0,0,0-1-3.54,8.72,8.72,0,0,0-2.9-2.25,26.27,26.27,0,0,0-4.68-1.6c-1.77-.49-3.87-1.13-6.29-1.77-1.13-.32-2.42-.65-3.87-1s-2.91-.8-4.52-1.28a27.16,27.16,0,0,1-4.36-1.93,24.39,24.39,0,0,1-3.87-2.73,11.9,11.9,0,0,1-2.74-4,13,13,0,0,1-1-5.31,22,22,0,0,1,1.45-8.19,17.2,17.2,0,0,1,4.52-6.27,19.1,19.1,0,0,1,7.91-3.86,46.53,46.53,0,0,1,11.29-1.29,29,29,0,0,1,9.52,1.45A23,23,0,0,1,202,34a15.05,15.05,0,0,1,4.35,6.11,20.94,20.94,0,0,1,1.46,8H193.45a6.5,6.5,0,0,0-.49-2.57,5.27,5.27,0,0,0-1.61-2.25,12.66,12.66,0,0,0-2.9-1.61,15.73,15.73,0,0,0-4.36-.64,20.5,20.5,0,0,0-4.84.48,8.13,8.13,0,0,0-2.9,1.29,5,5,0,0,0-1.46,1.93,5.12,5.12,0,0,0-.48,2.25,4,4,0,0,0,1,2.73,7,7,0,0,0,2.74,1.93,41.13,41.13,0,0,0,4.2,1.44c1.61.33,3.38.81,5.16,1.13,2.09.48,4.19,1.13,6.13,1.61,1.93.64,3.71,1.28,5.32,1.93a29,29,0,0,1,4.52,2.57,15.26,15.26,0,0,1,5.65,7.87,20.22,20.22,0,0,1,.8,5.79,17.12,17.12,0,0,1-1.93,8.2,16.17,16.17,0,0,1-5.49,6,28.79,28.79,0,0,1-8.39,3.69A42.2,42.2,0,0,1,183.6,93.1a36.47,36.47,0,0,1-11.93-1.77,23.45,23.45,0,0,1-8.07-4.82,17.91,17.91,0,0,1-4.52-6.59,20.08,20.08,0,0,1-1.45-7.4H172Z"/><path class="cls-1" d="M213.29,67.54a27.61,27.61,0,0,1,1.78-9.64,23.4,23.4,0,0,1,5-7.88,22.75,22.75,0,0,1,7.9-5.3,27.05,27.05,0,0,1,10.49-1.93,23,23,0,0,1,8.39,1.44,29.11,29.11,0,0,1,6.29,3.54l.65-3.54h11.94V90.85H253.79l-.65-3.54a23.67,23.67,0,0,1-6.29,3.54,22.16,22.16,0,0,1-8.23,1.44,26.34,26.34,0,0,1-10.32-1.92,22.86,22.86,0,0,1-7.91-5.31,23.46,23.46,0,0,1-5-7.87A22.17,22.17,0,0,1,213.29,67.54Zm14,0a14.06,14.06,0,0,0,1,5.31,11.76,11.76,0,0,0,2.74,4,9.72,9.72,0,0,0,4,2.58,12.68,12.68,0,0,0,9.68,0,13.27,13.27,0,0,0,4-2.58,11.91,11.91,0,0,0,2.74-4,15,15,0,0,0,0-10.61,11.85,11.85,0,0,0-2.74-4,11.42,11.42,0,0,0-4-2.57,12.56,12.56,0,0,0-9.68,0,13.12,13.12,0,0,0-4,2.57,11.35,11.35,0,0,0-2.58,4A11.53,11.53,0,0,0,227.33,67.54Z"/><path class="cls-1" d="M323.17,90.85h-14V66.09a17.92,17.92,0,0,0-.65-5.46,10.68,10.68,0,0,0-1.93-3.54,7.26,7.26,0,0,0-2.91-1.93,13.85,13.85,0,0,0-3.71-.64,11,11,0,0,0-4.68,1,9.94,9.94,0,0,0-3.55,2.73,10.72,10.72,0,0,0-2.25,4,16.94,16.94,0,0,0-.81,5.14V90.85h-14V44.23h11.29l.81,3.54c1-.64,2.1-1.29,3.23-1.93a27.12,27.12,0,0,1,3.71-1.61,29.63,29.63,0,0,1,4-1.12,17.78,17.78,0,0,1,4.2-.48,25.59,25.59,0,0,1,9.68,1.6,16.49,16.49,0,0,1,6.61,4.67A20.74,20.74,0,0,1,322,56.13a30.57,30.57,0,0,1,1.29,9.64V90.85Z"/><path class="cls-1" d="M327.84,67.54a27.61,27.61,0,0,1,1.78-9.64,23.4,23.4,0,0,1,5-7.88,22.7,22.7,0,0,1,7.91-5.3A27,27,0,0,1,353,42.79a23,23,0,0,1,8.39,1.44,29.44,29.44,0,0,1,6.3,3.54l.64-3.54h11.94V90.85H368.34l-.64-3.54a23.89,23.89,0,0,1-6.3,3.54,22.16,22.16,0,0,1-8.23,1.44,26.34,26.34,0,0,1-10.32-1.92,22.86,22.86,0,0,1-7.91-5.31,21.22,21.22,0,0,1-5-7.87A22.17,22.17,0,0,1,327.84,67.54Zm14,0a14.06,14.06,0,0,0,1,5.31,11.76,11.76,0,0,0,2.74,4,9.72,9.72,0,0,0,4,2.58,12.68,12.68,0,0,0,9.68,0,13.27,13.27,0,0,0,4-2.58,11.76,11.76,0,0,0,2.74-4,15,15,0,0,0,0-10.61,11.71,11.71,0,0,0-2.74-4,11.42,11.42,0,0,0-4-2.57,12.56,12.56,0,0,0-9.68,0,13.12,13.12,0,0,0-4,2.57,11.35,11.35,0,0,0-2.58,4A11.53,11.53,0,0,0,341.88,67.54Z"/><path class="cls-1" d="M441.59,67.54a27.67,27.67,0,0,1-1.78,9.65,21.22,21.22,0,0,1-5,7.87,22.25,22.25,0,0,1-7.74,5.31,27,27,0,0,1-10.33,1.92,22.22,22.22,0,0,1-7.58-1.12,19.84,19.84,0,0,1-5.81-3v18.64h-14V44.07h11.3l1,4a23,23,0,0,1,2.9-2.09A25.54,25.54,0,0,1,408,44.23a16.67,16.67,0,0,1,4-1.12,20.67,20.67,0,0,1,4.52-.48,26.24,26.24,0,0,1,10.33,1.93,24.34,24.34,0,0,1,7.9,5.3,21.17,21.17,0,0,1,5,7.88A29.21,29.21,0,0,1,441.59,67.54Zm-14,0a14,14,0,0,0-1-5.3,11.71,11.71,0,0,0-2.74-4,9.6,9.6,0,0,0-4-2.57,12.56,12.56,0,0,0-9.68,0,12.18,12.18,0,0,0-3.87,2.57,11.87,11.87,0,0,0-2.75,4,15,15,0,0,0,0,10.61,11.93,11.93,0,0,0,2.75,4,11.45,11.45,0,0,0,4,2.58,12.68,12.68,0,0,0,9.68,0,11,11,0,0,0,3.87-2.58,11.4,11.4,0,0,0,2.58-4A11.6,11.6,0,0,0,427.55,67.54Z"/><path class="cls-1" d="M500,67.54a27.66,27.66,0,0,1-1.77,9.65,21.22,21.22,0,0,1-5,7.87,22.19,22.19,0,0,1-7.75,5.31,26.9,26.9,0,0,1-10.32,1.92,22.25,22.25,0,0,1-7.59-1.12,19.91,19.91,0,0,1-5.8-3v18.64h-14V44.07H459l1,4A23.92,23.92,0,0,1,462.89,46a25.42,25.42,0,0,1,3.54-1.77,16.88,16.88,0,0,1,4-1.12,20.54,20.54,0,0,1,4.52-.48,26.16,26.16,0,0,1,10.32,1.93,24.28,24.28,0,0,1,7.91,5.3,21.17,21.17,0,0,1,5,7.88A29.2,29.2,0,0,1,500,67.54Zm-14,0a14,14,0,0,0-1-5.3,11.85,11.85,0,0,0-2.74-4,9.57,9.57,0,0,0-4-2.57,12.56,12.56,0,0,0-9.68,0,12.4,12.4,0,0,0-3.87,2.57,11.71,11.71,0,0,0-2.74,4,15,15,0,0,0,0,10.61,11.76,11.76,0,0,0,2.74,4,11.63,11.63,0,0,0,4,2.58,12.68,12.68,0,0,0,9.68,0,10.91,10.91,0,0,0,3.88-2.58,11.54,11.54,0,0,0,2.58-4A11.73,11.73,0,0,0,486,67.54Z"/><path class="cls-1" d="M507.9,29h-3.55v9h-1V29h-3.55V28h7.91v1Z"/><path class="cls-1" d="M520,28.16V38h-1V30.09l-3.87,6.59h-.48l-3.88-6.59V38h-1V28.16h.8L515,35.39l4.19-7.23Z"/><rect class="cls-2" width="130" height="134"/><path class="cls-3" d="M130,57.57h0a.34.34,0,0,1,0-.1s0,.07,0,.1Z"/><path class="cls-3" d="M130,57.47a.34.34,0,0,0,0,.1h0s0-.06,0-.1Z"/><path class="cls-3" d="M1.85,48.14h0Z"/><path class="cls-4" d="M64.91,28.7c-70.34,27.39-51.53-2.4-48-7.39h0A65.62,65.62,0,0,1,38.73,5.54,64.34,64.34,0,0,1,64.92,0V28.7"/><path class="cls-3" d="M130,57.47a.34.34,0,0,0,0,.1h0s0-.06,0-.1ZM1.85,48.14h0Z"/><path class="cls-5" d="M129.73,55.78c-1.66-8.28-8.37-11.53-16.91-12.07h0a56.22,56.22,0,0,0-10.29.44c-17.8,2.26-37.65,11.11-37.65,11.11C48.6,61.75,36.41,65.1,27.31,66.38a58.21,58.21,0,0,1-8.13.62c-4.89,0-8.5-.81-11.14-2.09C-.85,60.6,1.09,51,1.71,48.65c.05-.22.1-.37.12-.45l0-.05h0a67.4,67.4,0,0,1,15-26.83c-3.51,5-22.32,34.78,48,7.39,0,0,40.31-17.08,50.06-5.08h0A67.68,67.68,0,0,1,129.73,55.78Z"/><path class="cls-3" d="M128,85.86h0Z"/><path class="cls-4" d="M64.92,134a64.34,64.34,0,0,0,26.19-5.54A65.52,65.52,0,0,0,113,112.7a0,0,0,0,0,0,0c3.5-5,22.31-34.78-48-7.39Z"/><path class="cls-3" d="M128,85.86Z"/><path class="cls-5" d="M128.13,85.35c0,.22-.1.37-.12.45l0,0h0a67.5,67.5,0,0,1-15,26.83c3.5-5,22.31-34.78-48-7.39,0,0-40.31,17.08-50.06,5.08h0A67.57,67.57,0,0,1,.12,78.22C1.77,86.5,8.49,89.75,17,90.29a56.18,56.18,0,0,0,10.29-.44C45.11,87.59,65,78.74,65,78.74c16.28-6.49,28.47-9.85,37.57-11.12a58.21,58.21,0,0,1,8.13-.62c4.89,0,8.5.81,11.14,2.09C130.69,73.4,128.75,83,128.13,85.35Z"/><path class="cls-4" d="M121.8,69.09c-2.64-1.28-6.25-2.09-11.14-2.09a58.21,58.21,0,0,0-8.13.62C93.43,68.89,81.24,72.25,65,78.74c0,0-19.85,8.85-37.65,11.11A56.18,56.18,0,0,1,17,90.29C8.49,89.75,1.77,86.5.12,78.22c0,0-1.7-7.32,7.92-13.31C10.68,66.19,14.29,67,19.18,67a58.21,58.21,0,0,0,8.13-.62c9.1-1.28,21.29-4.63,37.57-11.12,0,0,19.85-8.85,37.65-11.11a56.22,56.22,0,0,1,10.29-.44h0c8.54.54,15.25,3.79,16.91,12.07C129.72,55.78,131.42,63.1,121.8,69.09Z"/></svg>